<?xml version="1.0" standalone="no"?>
<!DOCTYPE svg PUBLIC "-//W3C//DTD SVG 20010904//EN"
 "http://www.w3.org/TR/2001/REC-SVG-20010904/DTD/svg10.dtd">
<svg version="1.0" xmlns="http://www.w3.org/2000/svg"
 width="377.000000pt" height="377.000000pt" viewBox="0 0 377.000000 377.000000"
 preserveAspectRatio="xMidYMid meet">
<metadata>
Created by potrace 1.14, written by Peter Selinger 2001-2017
</metadata>
<g transform="translate(0.000000,377.000000) scale(0.100000,-0.100000)"
fill="#000000" stroke="none">
<path d="M3110 2598 c0 -181 -3 -328 -6 -328 -4 0 -26 18 -49 39 -84 78 -184
110 -328 105 -199 -6 -378 -102 -477 -256 l-37 -57 -23 42 c-34 61 -115 143
-179 181 -209 127 -540 123 -737 -9 -37 -25 -69 -45 -71 -45 -2 0 -30 18 -63
40 -113 77 -258 113 -420 105 -303 -15 -501 -172 -566 -446 -8 -32 -11 -847
-4 -859 3 -5 45 -10 93 -12 62 -1 87 -5 87 -14 0 -7 4 -15 9 -18 5 -4 7 3 4
14 -4 16 0 20 21 20 14 0 26 -4 26 -10 0 -5 8 -10 18 -10 14 0 15 2 2 10 -10
6 -6 9 18 8 19 -1 29 -5 25 -12 -3 -6 0 -5 8 2 17 16 26 15 33 -4 4 -12 2 -15
-9 -10 -8 3 -15 1 -15 -5 0 -6 8 -9 18 -7 10 2 16 11 14 21 -2 9 2 17 8 17 5
0 10 -6 10 -14 0 -20 17 -29 26 -15 4 8 3 9 -4 5 -7 -4 -12 -1 -12 8 0 23 15
20 32 -6 11 -17 16 -19 23 -8 5 8 4 11 -2 7 -6 -4 -13 -1 -16 7 -3 8 0 16 7
19 11 4 14 68 5 107 -3 9 3 14 13 14 10 -1 18 2 18 7 0 5 -7 9 -15 9 -9 0 -15
9 -15 25 0 34 3 40 17 39 7 -1 13 2 13 7 0 5 -7 9 -15 9 -9 0 -15 9 -15 25 0
34 3 40 17 39 7 -1 13 2 13 7 0 5 -7 9 -15 9 -9 0 -15 9 -15 25 0 34 3 40 18
39 6 -1 12 2 12 7 0 5 -7 9 -15 9 -9 0 -15 9 -15 25 0 34 3 40 17 39 7 -1 13
2 13 7 0 5 -7 9 -15 9 -9 0 -15 9 -15 25 0 34 3 40 18 39 6 -1 12 2 12 7 0 5
-7 9 -15 9 -9 0 -15 9 -15 25 0 34 3 40 18 39 6 -1 12 2 12 7 0 5 -7 9 -15 9
-9 0 -15 9 -15 25 0 34 3 40 17 39 7 -1 13 2 13 7 0 5 -7 9 -16 9 -24 0 -15
82 9 86 11 1 22 6 25 10 4 4 -1 4 -10 1 -10 -3 -20 -2 -23 3 -4 6 -1 10 5 10
6 0 9 4 5 10 -3 5 3 18 14 29 11 11 16 23 13 27 -4 5 1 2 11 -5 15 -12 17 -12
12 1 -6 14 32 48 52 48 4 0 1 -5 -7 -10 -11 -8 -8 -9 14 -6 16 3 31 8 35 12 3
4 -2 4 -11 1 -10 -4 -18 -2 -18 3 0 4 30 7 68 6 86 -4 84 -4 76 -17 -4 -7 -1
-10 7 -7 22 8 69 -30 62 -49 -4 -11 -2 -14 5 -9 7 4 18 -7 29 -26 16 -30 18
-70 21 -425 l3 -393 47 0 c27 0 54 -6 61 -12 11 -11 12 -10 6 0 -5 10 0 13 21
10 22 -2 28 -8 26 -23 -2 -16 -1 -17 7 -5 5 8 7 18 5 22 -8 13 21 9 35 -4 8
-7 11 -8 8 -2 -4 7 9 11 38 11 30 0 45 -4 45 -13 0 -7 4 -15 9 -18 5 -4 7 3 4
14 -4 16 0 20 21 20 14 0 26 -4 26 -10 0 -5 8 -10 18 -10 14 0 15 2 2 10 -10
6 -6 9 18 8 18 -1 29 -5 25 -11 -4 -6 -1 -7 6 -3 7 5 10 11 6 14 -3 3 5 12 17
19 13 7 17 12 10 13 -7 0 -10 5 -6 12 4 7 3 8 -5 4 -6 -4 -9 -12 -6 -17 4 -5
1 -9 -5 -9 -18 0 -7 44 14 56 17 10 17 12 2 17 -10 4 -15 3 -11 -3 3 -6 1 -10
-4 -10 -6 0 -11 12 -11 26 0 20 4 25 22 22 15 -2 24 3 26 15 2 9 -1 17 -7 17
-6 0 -8 -6 -5 -14 4 -11 0 -13 -15 -9 -14 4 -20 12 -19 29 2 14 7 23 14 20 6
-2 17 0 25 5 12 8 12 10 -1 8 -33 -3 -41 2 -38 24 2 12 9 27 17 33 11 9 12 12
1 19 -9 5 -11 4 -6 -3 4 -7 2 -12 -3 -12 -6 0 -10 11 -9 25 1 14 7 25 13 25 5
0 4 4 -3 9 -17 10 -12 44 8 53 12 5 12 7 -2 7 -16 1 -17 15 -16 144 0 133 2
145 21 156 17 11 19 11 14 -3 -4 -9 -2 -16 4 -16 18 0 5 33 -14 36 -9 1 -15
-2 -11 -7 3 -5 0 -9 -5 -9 -6 0 -10 12 -9 26 2 21 7 25 25 21 12 -2 20 0 17 4
-3 5 -13 9 -23 9 -10 0 -18 7 -18 15 0 8 5 15 11 15 6 0 4 5 -4 10 -12 8 -10
10 10 11 20 0 22 2 7 8 -16 6 -15 10 12 48 39 54 61 67 78 45 10 -15 11 -14 6
6 -5 22 -5 23 52 26 11 1 26 5 33 10 9 6 12 3 10 -9 -2 -10 4 -20 12 -22 13
-4 13 -3 0 6 -8 6 -13 11 -10 12 3 0 14 2 24 4 11 2 33 -3 50 -12 40 -21 98
-83 92 -100 -3 -7 -2 -13 3 -13 4 0 9 -6 11 -12 1 -7 5 -187 7 -400 l3 -388
53 -1 c28 -1 68 -1 89 -1 23 1 38 -4 42 -13 6 -17 -10 -21 -17 -5 -3 6 -4 5
-3 -2 4 -20 31 -15 28 5 -2 9 2 17 8 17 5 0 10 -6 10 -14 0 -20 17 -29 26 -15
4 8 3 9 -4 5 -7 -4 -12 -1 -12 8 0 18 16 21 25 6 3 -6 12 -10 18 -10 7 0 6 4
-3 11 -12 8 -11 9 5 7 13 -3 19 -10 17 -23 -2 -16 -1 -17 7 -5 5 8 7 18 5 22
-8 13 21 9 35 -4 8 -7 11 -8 8 -2 -7 13 93 17 108 4 6 -5 17 -4 25 2 12 8 12
9 -2 4 -27 -8 -32 11 -33 128 l-1 109 33 -39 c18 -21 33 -44 33 -51 0 -6 5
-15 12 -19 7 -4 8 -3 4 4 -4 7 -3 12 3 12 16 0 24 -21 12 -33 -6 -6 -11 -15
-11 -21 0 -5 6 -1 14 9 13 18 14 18 39 -2 15 -11 23 -23 19 -27 -3 -4 1 -4 11
0 12 4 17 1 17 -12 0 -14 3 -16 9 -6 6 10 10 10 21 -2 7 -9 16 -13 21 -10 5 3
9 0 9 -5 0 -6 3 -10 8 -9 17 5 82 -27 83 -42 0 -13 1 -13 7 1 6 13 12 14 32 7
20 -7 22 -11 10 -18 -9 -6 -10 -10 -3 -10 6 0 15 5 18 11 4 6 19 7 35 4 16 -3
42 -7 59 -7 18 -1 28 -5 24 -11 -4 -6 -1 -7 8 -1 30 18 73 12 98 -15 l24 -26
-16 27 -17 27 45 -2 c25 -1 45 1 45 6 0 10 23 4 32 -8 4 -6 8 -2 8 8 0 15 3
16 21 6 12 -6 19 -7 15 -1 -3 5 4 12 15 15 15 4 19 2 15 -9 -3 -8 -1 -14 4
-14 6 0 10 10 10 22 0 12 3 18 7 15 3 -4 12 -2 19 4 15 12 28 -6 22 -31 -2 -8
6 -15 17 -17 15 -2 16 -1 5 5 -18 8 -19 58 -2 54 7 -1 12 3 12 9 0 5 5 7 10 4
6 -3 10 -2 10 3 0 5 11 14 25 20 14 6 25 8 25 3 0 -5 -6 -12 -12 -15 -7 -2 -3
-4 9 -2 12 1 26 6 30 11 5 4 2 5 -4 1 -18 -10 -16 19 2 34 8 7 15 9 15 6 0 -4
11 4 23 18 24 26 47 25 26 -1 -9 -9 -8 -13 0 -13 11 0 15 12 12 36 -2 15 32
44 59 49 12 2 25 7 29 10 3 4 -7 4 -23 1 l-29 -5 24 22 c13 12 27 21 30 20 4
-1 6 3 6 10 -3 48 55 107 67 68 3 -10 4 -9 3 4 -2 14 -9 19 -22 17 -17 -2 -18
-1 -5 10 8 7 15 18 15 23 0 6 8 36 18 67 9 31 18 68 19 82 1 14 5 26 8 26 3 0
5 107 4 238 0 154 3 242 10 251 7 9 7 12 1 9 -7 -4 -10 105 -10 330 0 186 -1
364 -3 397 l-4 60 -214 0 -214 0 0 -327z m-210 -590 c7 -18 9 -19 9 -5 1 9 3
17 4 17 14 0 69 -35 77 -48 5 -9 10 -13 10 -9 0 18 39 -32 65 -83 62 -123 32
-296 -65 -378 -57 -49 -156 -67 -235 -45 -51 15 -115 65 -115 91 0 7 -4 11 -9
8 -5 -3 -18 17 -30 44 l-22 51 20 28 c11 16 18 31 14 35 -10 9 -33 7 -33 -4 0
-5 7 -7 16 -3 14 5 14 3 3 -15 -19 -30 -26 -20 -26 38 -1 29 3 47 9 44 5 -3 7
-12 4 -19 -5 -14 18 -14 31 0 4 4 4 6 -2 3 -5 -3 -18 5 -28 18 -18 24 -14 29
23 25 13 -2 13 -1 0 8 -8 5 -18 7 -22 5 -9 -6 -10 3 -2 34 4 12 10 22 15 22 5
0 6 -7 3 -15 -4 -8 -2 -15 4 -15 11 0 10 25 -1 36 -9 9 10 43 41 77 29 31 39
34 39 12 0 -10 -6 -14 -16 -10 -12 5 -13 3 -4 -6 13 -13 37 -3 28 12 -4 5 2
10 12 10 17 1 17 2 1 6 -35 9 -18 29 20 24 6 -1 12 3 12 8 0 11 33 17 98 20
36 1 44 -3 52 -21z"/>
<path d="M2805 2010 c-3 -6 1 -7 9 -4 18 7 21 14 7 14 -6 0 -13 -4 -16 -10z"/>
<path d="M2868 2002 c9 -10 19 -17 21 -16 6 5 -20 34 -30 34 -5 0 -1 -8 9 -18z"/>
<path d="M2828 1993 c6 -2 18 -2 25 0 6 3 1 5 -13 5 -14 0 -19 -2 -12 -5z"/>
<path d="M2917 1986 c-3 -8 0 -22 7 -32 10 -13 15 -14 21 -4 5 9 4 11 -3 6
-12 -7 -16 5 -13 32 2 16 -6 15 -12 -2z"/>
<path d="M2750 1975 c0 -8 4 -15 10 -15 5 0 7 7 4 15 -4 8 -8 15 -10 15 -2 0
-4 -7 -4 -15z"/>
<path d="M2817 1963 c5 -12 3 -14 -7 -8 -9 5 -11 4 -6 -4 4 -6 12 -9 17 -6 12
8 12 35 -1 35 -5 0 -6 -7 -3 -17z"/>
<path d="M2852 1963 c2 -9 13 -18 25 -19 25 -4 39 11 22 22 -7 4 -9 3 -5 -4 4
-7 -2 -10 -14 -9 -12 1 -19 6 -16 14 3 7 1 13 -5 13 -6 0 -9 -7 -7 -17z"/>
<path d="M2948 1973 c7 -3 16 -2 19 1 4 3 -2 6 -13 5 -11 0 -14 -3 -6 -6z"/>
<path d="M2711 1939 c-13 -10 -20 -19 -15 -19 4 0 16 8 27 18 19 16 20 16 14
0 -4 -10 -2 -18 3 -18 12 0 13 27 2 33 -4 3 -18 -3 -31 -14z"/>
<path d="M2777 1953 c-3 -5 -1 -17 3 -27 6 -17 7 -18 13 -3 3 9 2 17 -4 17 -6
0 -7 5 -4 10 3 6 4 10 1 10 -3 0 -7 -3 -9 -7z"/>
<path d="M2969 1954 c6 -3 7 -12 4 -20 -3 -8 -1 -14 5 -14 14 0 8 33 -7 36 -6
1 -7 0 -2 -2z"/>
<path d="M2655 1930 c-3 -5 -1 -10 4 -10 6 0 11 5 11 10 0 6 -2 10 -4 10 -3 0
-8 -4 -11 -10z"/>
<path d="M2825 1930 c-3 -5 -2 -10 4 -10 5 0 13 5 16 10 3 6 2 10 -4 10 -5 0
-13 -4 -16 -10z"/>
<path d="M2912 1935 c4 -4 1 -13 -8 -20 -14 -10 -14 -12 3 -25 14 -11 16 -11
6 0 -10 10 -9 16 4 25 13 10 14 13 2 20 -8 5 -11 5 -7 0z"/>
<path d="M3012 1926 c7 -8 15 -12 17 -11 5 6 -10 25 -20 25 -5 0 -4 -6 3 -14z"/>
<path d="M2750 1910 c-13 -8 -12 -10 3 -10 9 0 17 5 17 10 0 12 -1 12 -20 0z"/>
<path d="M2790 1896 c-8 -15 -19 -23 -31 -21 -10 2 -22 -1 -25 -7 -4 -6 -2 -8
4 -4 6 3 12 -3 15 -16 l4 -23 2 23 c0 13 5 21 10 18 9 -6 46 42 38 50 -2 2 -9
-7 -17 -20z"/>
<path d="M2857 1909 c7 -7 15 -10 18 -7 3 3 -2 9 -12 12 -14 6 -15 5 -6 -5z"/>
<path d="M2990 1910 c-13 -8 -12 -10 3 -10 9 0 17 5 17 10 0 12 -1 12 -20 0z"/>
<path d="M2633 1895 c0 -8 4 -12 9 -9 4 3 8 9 8 15 0 5 -4 9 -8 9 -5 0 -9 -7
-9 -15z"/>
<path d="M2677 1897 c-3 -8 -2 -20 3 -26 5 -9 8 -4 8 13 0 29 -3 32 -11 13z"/>
<path d="M2707 1897 c-3 -8 1 -14 9 -14 16 0 19 13 5 21 -5 3 -11 0 -14 -7z"/>
<path d="M2830 1890 c-13 -8 -12 -10 3 -10 9 0 17 5 17 10 0 12 -1 12 -20 0z"/>
<path d="M2935 1890 c3 -5 8 -10 11 -10 2 0 4 5 4 10 0 6 -5 10 -11 10 -5 0
-7 -4 -4 -10z"/>
<path d="M3027 1889 c7 -9 10 -19 6 -22 -3 -4 -1 -7 5 -7 17 0 15 16 -5 31
-16 12 -17 12 -6 -2z"/>
<path d="M2658 1853 c5 -21 7 -23 10 -9 2 10 0 22 -6 28 -6 6 -7 0 -4 -19z"/>
<path d="M2796 1863 c-6 -14 -5 -15 5 -6 7 7 10 15 7 18 -3 3 -9 -2 -12 -12z"/>
<path d="M2700 1850 c0 -6 4 -9 9 -6 5 4 12 1 14 -4 3 -6 4 -5 3 2 -3 15 -26
23 -26 8z"/>
<path d="M2630 1830 c-13 -8 -12 -10 3 -10 9 0 17 5 17 10 0 12 -1 12 -20 0z"/>
<path d="M2677 1826 c-3 -8 0 -22 7 -32 10 -13 15 -14 21 -4 5 9 4 11 -3 6
-12 -7 -16 5 -13 32 2 16 -6 15 -12 -2z"/>
<path d="M2702 1816 c2 -1 12 -8 22 -16 11 -8 17 -10 13 -3 -4 6 -1 13 5 16 7
2 0 4 -15 4 -15 0 -27 0 -25 -1z"/>
<path d="M2655 1800 c3 -5 -1 -10 -9 -10 -9 0 -16 -5 -16 -10 0 -7 7 -7 20 0
17 9 20 30 4 30 -3 0 -2 -4 1 -10z"/>
<path d="M2700 1770 c-8 -5 -10 -10 -5 -10 6 0 17 5 25 10 8 5 11 10 5 10 -5
0 -17 -5 -25 -10z"/>
<path d="M2640 1745 c-7 -9 -10 -18 -7 -22 4 -3 9 2 13 11 3 9 11 13 17 9 6
-3 7 -1 3 5 -9 15 -11 15 -26 -3z"/>
<path d="M2676 1735 c-3 -8 -1 -15 4 -15 6 0 10 7 10 15 0 8 -2 15 -4 15 -2 0
-6 -7 -10 -15z"/>
<path d="M2644 1709 c-4 -7 -3 -9 4 -5 5 3 13 0 15 -6 4 -9 6 -10 6 -1 1 17
-16 25 -25 12z"/>
<path d="M2675 1679 c-4 -6 -5 -12 -2 -15 2 -3 7 2 10 11 7 17 1 20 -8 4z"/>
<path d="M2605 1650 c-3 -6 1 -7 9 -4 18 7 21 14 7 14 -6 0 -13 -4 -16 -10z"/>
<path d="M2657 1629 c7 -7 15 -10 18 -7 3 3 -2 9 -12 12 -14 6 -15 5 -6 -5z"/>
<path d="M2615 1610 c3 -5 8 -10 11 -10 2 0 4 5 4 10 0 6 -5 10 -11 10 -5 0
-7 -4 -4 -10z"/>
<path d="M2635 1590 c-4 -6 1 -7 11 -3 13 5 15 3 9 -7 -5 -9 -4 -11 4 -6 6 4
9 12 6 17 -8 12 -22 12 -30 -1z"/>
<path d="M3630 2761 c0 -7 -5 -9 -12 -5 -7 5 -8 3 -3 -5 5 -9 10 -10 18 -2 6
6 8 14 4 18 -4 3 -7 1 -7 -6z"/>
<path d="M3562 2730 c0 -14 2 -19 5 -12 2 6 2 18 0 25 -3 6 -5 1 -5 -13z"/>
<path d="M3597 2733 c-10 -9 -9 -23 1 -23 5 0 9 7 9 15 0 17 -1 18 -10 8z"/>
<path d="M3556 2688 c3 -4 11 -5 19 -1 21 7 19 12 -4 10 -11 0 -18 -5 -15 -9z"/>
<path d="M3616 2686 c4 -11 0 -13 -14 -9 -26 6 -34 -8 -16 -32 8 -10 14 -14
14 -9 0 6 -6 16 -12 23 -11 10 -8 12 12 9 17 -2 26 2 28 15 2 9 -1 17 -7 17
-6 0 -8 -6 -5 -14z"/>
<path d="M3556 2647 c3 -10 9 -15 12 -12 3 3 0 11 -7 18 -10 9 -11 8 -5 -6z"/>
<path d="M3570 2610 c0 -5 5 -10 10 -10 6 0 10 5 10 10 0 6 -4 10 -10 10 -5 0
-10 -4 -10 -10z"/>
<path d="M3617 2589 c7 -7 15 -10 18 -7 3 3 -2 9 -12 12 -14 6 -15 5 -6 -5z"/>
<path d="M3562 2570 c0 -14 2 -19 5 -12 2 6 2 18 0 25 -3 6 -5 1 -5 -13z"/>
<path d="M3597 2573 c-10 -9 -9 -23 1 -23 5 0 9 7 9 15 0 17 -1 18 -10 8z"/>
<path d="M3556 2528 c3 -4 11 -5 19 -1 21 7 19 12 -4 10 -11 0 -18 -5 -15 -9z"/>
<path d="M3616 2526 c4 -11 0 -13 -14 -9 -26 6 -34 -8 -16 -32 8 -10 14 -14
14 -9 0 6 -6 16 -12 23 -11 10 -8 12 12 9 17 -2 26 2 28 15 2 9 -1 17 -7 17
-6 0 -8 -6 -5 -14z"/>
<path d="M3556 2487 c3 -10 9 -15 12 -12 3 3 0 11 -7 18 -10 9 -11 8 -5 -6z"/>
<path d="M3570 2450 c0 -5 5 -10 10 -10 6 0 10 5 10 10 0 6 -4 10 -10 10 -5 0
-10 -4 -10 -10z"/>
<path d="M3617 2429 c7 -7 15 -10 18 -7 3 3 -2 9 -12 12 -14 6 -15 5 -6 -5z"/>
<path d="M3562 2410 c0 -14 2 -19 5 -12 2 6 2 18 0 25 -3 6 -5 1 -5 -13z"/>
<path d="M3597 2413 c-10 -9 -9 -23 1 -23 5 0 9 7 9 15 0 17 -1 18 -10 8z"/>
<path d="M3556 2368 c3 -4 11 -5 19 -1 21 7 19 12 -4 10 -11 0 -18 -5 -15 -9z"/>
<path d="M3616 2366 c4 -11 0 -13 -14 -9 -26 6 -34 -8 -16 -32 8 -10 14 -14
14 -9 0 6 -6 16 -12 23 -11 10 -8 12 12 9 17 -2 26 2 28 15 2 9 -1 17 -7 17
-6 0 -8 -6 -5 -14z"/>
<path d="M3556 2327 c3 -10 9 -15 12 -12 3 3 0 11 -7 18 -10 9 -11 8 -5 -6z"/>
<path d="M3570 2290 c0 -5 5 -10 10 -10 6 0 10 5 10 10 0 6 -4 10 -10 10 -5 0
-10 -4 -10 -10z"/>
<path d="M3617 2269 c7 -7 15 -10 18 -7 3 3 -2 9 -12 12 -14 6 -15 5 -6 -5z"/>
<path d="M3562 2250 c0 -14 2 -19 5 -12 2 6 2 18 0 25 -3 6 -5 1 -5 -13z"/>
<path d="M3597 2253 c-10 -9 -9 -23 1 -23 5 0 9 7 9 15 0 17 -1 18 -10 8z"/>
<path d="M3556 2208 c3 -4 11 -5 19 -1 21 7 19 12 -4 10 -11 0 -18 -5 -15 -9z"/>
<path d="M3616 2206 c4 -11 0 -13 -14 -9 -22 5 -38 -12 -21 -23 8 -5 9 -3 4 5
-5 9 0 12 16 9 16 -2 25 3 27 15 2 9 -1 17 -7 17 -6 0 -8 -6 -5 -14z"/>
<path d="M3550 2170 c0 -5 5 -10 11 -10 5 0 7 5 4 10 -3 6 -8 10 -11 10 -2 0
-4 -4 -4 -10z"/>
<path d="M3574 2145 c-3 -8 -2 -20 2 -26 5 -9 2 -10 -10 -6 -11 4 -15 3 -11
-4 12 -18 28 -4 29 24 2 30 -2 34 -10 12z"/>
<path d="M3596 2128 c3 -5 10 -6 15 -3 13 9 11 12 -6 12 -8 0 -12 -4 -9 -9z"/>
<path d="M3615 2111 c-3 -5 0 -13 6 -17 7 -4 9 -3 5 4 -3 5 0 13 6 15 9 4 10
6 1 6 -6 1 -14 -3 -18 -8z"/>
<path d="M3580 2088 c-12 -8 -11 -9 3 -4 15 5 17 2 12 -13 -7 -22 10 -37 21
-20 5 8 3 9 -6 4 -9 -5 -10 -2 -6 13 8 24 -4 35 -24 20z"/>
<path d="M3557 2063 c-10 -9 -9 -23 1 -23 5 0 9 7 9 15 0 17 -1 18 -10 8z"/>
<path d="M3579 2033 c-1 -5 -1 -16 0 -25 2 -13 -3 -16 -16 -12 -15 5 -16 4 -3
-5 11 -8 18 -7 26 4 6 8 13 14 15 12 2 -1 -1 3 -8 9 -7 6 -10 14 -6 17 3 4 3
7 0 7 -4 0 -8 -3 -8 -7z"/>
<path d="M3615 2031 c-3 -5 0 -13 6 -17 7 -4 9 -3 5 4 -3 5 0 13 6 15 9 4 10
6 1 6 -6 1 -14 -3 -18 -8z"/>
<path d="M820 2008 c0 -11 -6 -14 -19 -11 -22 6 -37 -12 -20 -23 8 -5 9 -3 4
6 -6 10 -3 12 14 7 22 -5 41 16 27 30 -3 4 -6 -1 -6 -9z"/>
<path d="M1574 2003 c3 -20 33 -30 48 -15 6 6 0 8 -18 4 -18 -3 -25 -1 -20 6
3 6 2 13 -3 16 -5 4 -8 -2 -7 -11z"/>
<path d="M1686 2007 c3 -10 9 -15 12 -12 3 3 0 11 -7 18 -10 9 -11 8 -5 -6z"/>
<path d="M734 1988 c-4 -7 -3 -8 4 -4 12 7 16 -4 13 -34 -2 -13 0 -13 8 -1 6
10 6 21 0 33 -11 21 -15 22 -25 6z"/>
<path d="M837 1987 c-3 -8 -2 -20 3 -26 5 -9 8 -4 8 13 0 29 -3 32 -11 13z"/>
<path d="M1670 1997 c0 -16 33 -57 41 -51 6 3 8 -6 5 -20 -3 -14 0 -26 5 -26
5 0 9 6 8 13 -3 26 1 38 13 31 6 -4 8 -3 5 4 -4 5 -15 9 -25 8 -9 -2 -25 8
-34 23 -10 14 -18 22 -18 18z"/>
<path d="M1710 1989 c0 -5 5 -7 10 -4 6 3 10 8 10 11 0 2 -4 4 -10 4 -5 0 -10
-5 -10 -11z"/>
<path d="M3613 1985 c-3 -9 -3 -19 1 -22 3 -4 6 1 6 11 0 10 5 14 12 10 7 -4
8 -3 4 4 -10 16 -15 15 -23 -3z"/>
<path d="M870 1980 c-8 -5 -10 -10 -5 -10 6 0 17 5 25 10 8 5 11 10 5 10 -5 0
-17 -5 -25 -10z"/>
<path d="M900 1970 c-9 -6 -10 -10 -3 -10 6 0 15 5 18 10 8 12 4 12 -15 0z"/>
<path d="M1496 1967 c4 -12 2 -17 -6 -15 -7 2 -15 -4 -17 -12 -4 -13 -3 -13 6
0 6 8 11 11 11 6 0 -6 5 -5 12 2 9 9 9 15 -1 25 -10 10 -11 8 -5 -6z"/>
<path d="M1551 1970 c-9 -5 -4 -7 13 -7 29 0 32 2 13 10 -8 3 -20 2 -26 -3z"/>
<path d="M1621 1970 c-9 -5 -4 -7 13 -7 29 0 32 2 13 10 -8 3 -20 2 -26 -3z"/>
<path d="M3580 1960 c-6 -11 -8 -20 -6 -20 3 0 10 9 16 20 6 11 8 20 6 20 -3
0 -10 -9 -16 -20z"/>
<path d="M708 1963 c6 -2 18 -2 25 0 6 3 1 5 -13 5 -14 0 -19 -2 -12 -5z"/>
<path d="M797 1963 c-12 -11 -8 -23 7 -23 8 0 18 4 21 10 4 6 -1 7 -11 3 -12
-4 -15 -3 -10 5 8 13 3 16 -7 5z"/>
<path d="M670 1950 c0 -5 5 -10 10 -10 6 0 10 5 10 10 0 6 -4 10 -10 10 -5 0
-10 -4 -10 -10z"/>
<path d="M1516 1943 c-6 -14 -5 -15 5 -6 7 7 10 15 7 18 -3 3 -9 -2 -12 -12z"/>
<path d="M1674 1947 c5 -15 2 -17 -13 -12 -24 7 -33 -6 -19 -25 8 -12 9 -11 4
3 -5 15 -2 17 13 12 24 -7 33 6 19 25 -8 12 -9 11 -4 -3z"/>
<path d="M770 1935 c0 -8 4 -15 10 -15 5 0 7 7 4 15 -4 8 -8 15 -10 15 -2 0
-4 -7 -4 -15z"/>
<path d="M912 1930 c0 -14 2 -19 5 -12 2 6 2 18 0 25 -3 6 -5 1 -5 -13z"/>
<path d="M1590 1940 c0 -5 5 -10 10 -10 6 0 10 5 10 10 0 6 -4 10 -10 10 -5 0
-10 -4 -10 -10z"/>
<path d="M1752 1934 c-7 -8 -8 -14 -3 -14 10 0 25 19 20 25 -2 1 -10 -3 -17
-11z"/>
<path d="M3611 1942 c-1 -8 -6 -10 -13 -6 -10 5 -10 4 -1 -6 15 -16 28 -8 20
12 -4 11 -6 11 -6 0z"/>
<path d="M628 1933 c6 -2 18 -2 25 0 6 3 1 5 -13 5 -14 0 -19 -2 -12 -5z"/>
<path d="M705 1930 c3 -5 8 -10 11 -10 2 0 4 5 4 10 0 6 -5 10 -11 10 -5 0 -7
-4 -4 -10z"/>
<path d="M734 1921 c1 -8 9 -15 19 -17 9 -1 15 2 11 7 -3 5 -9 7 -14 4 -5 -3
-10 0 -13 7 -3 9 -4 8 -3 -1z"/>
<path d="M3553 1925 c0 -8 4 -12 9 -9 5 3 6 10 3 15 -9 13 -12 11 -12 -6z"/>
<path d="M671 1922 c-1 -7 -6 -10 -13 -6 -6 4 -8 3 -4 -4 3 -6 15 -9 25 -7 11
2 22 -3 25 -12 4 -9 9 -13 13 -10 3 4 12 -1 20 -11 13 -15 13 -15 3 6 -6 12
-15 20 -19 17 -5 -3 -12 2 -15 11 -3 8 -10 13 -15 10 -5 -4 -12 0 -14 6 -4 10
-6 10 -6 0z"/>
<path d="M875 1920 c-3 -5 -1 -10 4 -10 6 0 11 5 11 10 0 6 -2 10 -4 10 -3 0
-8 -4 -11 -10z"/>
<path d="M816 1912 c-2 -4 0 -14 6 -22 8 -12 9 -12 4 2 -3 12 2 18 17 21 l22
4 -22 2 c-12 0 -24 -3 -27 -7z"/>
<path d="M950 1911 c0 -6 4 -13 10 -16 6 -3 7 1 4 9 -7 18 -14 21 -14 7z"/>
<path d="M1473 1901 c0 -11 5 -18 9 -15 4 3 5 11 1 19 -7 21 -12 19 -10 -4z"/>
<path d="M1510 1910 c0 -5 5 -10 10 -10 6 0 10 5 10 10 0 6 -4 10 -10 10 -5 0
-10 -4 -10 -10z"/>
<path d="M1557 1906 c-3 -8 0 -22 7 -32 10 -13 15 -14 21 -4 5 9 4 11 -3 6
-12 -7 -16 5 -13 32 2 16 -6 15 -12 -2z"/>
<path d="M1621 1900 c14 -31 19 -36 19 -24 0 6 -7 19 -16 30 -14 18 -14 18 -3
-6z"/>
<path d="M1765 1910 c-4 -6 -11 -7 -17 -4 -7 4 -8 2 -4 -5 6 -9 11 -9 21 -1
10 8 14 7 18 -7 4 -16 5 -16 6 -1 1 20 -15 33 -24 18z"/>
<path d="M3574 1905 c-3 -8 -2 -20 2 -26 5 -9 2 -10 -10 -6 -11 4 -15 3 -11
-4 12 -18 28 -4 29 24 2 30 -2 34 -10 12z"/>
<path d="M855 1890 c3 -5 8 -10 11 -10 2 0 4 5 4 10 0 6 -5 10 -11 10 -5 0 -7
-4 -4 -10z"/>
<path d="M920 1896 c0 -2 7 -7 16 -10 8 -3 12 -2 9 4 -6 10 -25 14 -25 6z"/>
<path d="M1588 1893 c7 -3 16 -2 19 1 4 3 -2 6 -13 5 -11 0 -14 -3 -6 -6z"/>
<path d="M1668 1893 c6 -2 18 -2 25 0 6 3 1 5 -13 5 -14 0 -19 -2 -12 -5z"/>
<path d="M3596 1887 c3 -10 9 -15 12 -12 3 3 0 11 -7 18 -10 9 -11 8 -5 -6z"/>
<path d="M3631 1884 c0 -11 3 -14 6 -6 3 7 2 16 -1 19 -3 4 -6 -2 -5 -13z"/>
<path d="M757 1879 c7 -7 15 -10 18 -7 3 3 -2 9 -12 12 -14 6 -15 5 -6 -5z"/>
<path d="M1497 1884 c-10 -11 3 -24 23 -24 23 0 35 16 19 26 -8 4 -9 3 -5 -4
5 -8 -1 -12 -14 -12 -12 0 -18 5 -15 10 7 11 2 13 -8 4z"/>
<path d="M617 1872 c-3 -4 3 -18 14 -31 10 -13 19 -19 19 -13 0 5 -7 16 -16
23 -14 12 -14 14 3 20 16 7 16 8 1 8 -9 1 -19 -2 -21 -7z"/>
<path d="M660 1876 c0 -2 7 -6 15 -10 8 -3 15 -1 15 4 0 6 -7 10 -15 10 -8 0
-15 -2 -15 -4z"/>
<path d="M1462 1867 c10 -8 16 -16 13 -18 -2 -3 6 -6 18 -6 23 -2 15 6 -28 28
-18 9 -19 9 -3 -4z"/>
<path d="M701 1864 c-1 -5 5 -18 12 -29 11 -14 16 -15 22 -5 6 9 4 11 -5 5
-10 -6 -12 -4 -7 9 4 9 3 15 -2 11 -5 -3 -12 1 -14 7 -3 7 -6 8 -6 2z"/>
<path d="M1550 1850 c0 -5 5 -10 11 -10 5 0 7 5 4 10 -3 6 -8 10 -11 10 -2 0
-4 -4 -4 -10z"/>
<path d="M600 1828 c-12 -8 -12 -9 2 -4 10 3 18 -1 21 -12 4 -16 5 -16 6 0 1
22 -11 29 -29 16z"/>
<path d="M1517 1820 c-9 -11 -12 -20 -7 -20 6 0 13 7 16 15 4 8 11 12 17 8 6
-3 7 -1 3 5 -9 15 -9 15 -29 -8z"/>
<path d="M3595 1829 c-4 -6 -5 -12 -2 -15 2 -3 7 2 10 11 7 17 1 20 -8 4z"/>
<path d="M1477 1817 c-3 -8 -2 -20 3 -26 5 -9 8 -4 8 13 0 29 -3 32 -11 13z"/>
<path d="M660 1815 c0 -8 29 -12 39 -5 9 5 4 8 -13 8 -14 0 -26 -2 -26 -3z"/>
<path d="M3550 1810 c0 -5 5 -10 11 -10 5 0 7 5 4 10 -3 6 -8 10 -11 10 -2 0
-4 -4 -4 -10z"/>
<path d="M3616 1805 c4 -10 0 -13 -15 -10 -26 5 -35 -10 -21 -32 10 -16 10
-16 5 3 -4 17 -1 21 17 20 14 -1 24 6 26 17 2 9 -1 17 -7 17 -6 0 -8 -7 -5
-15z"/>
<path d="M657 1793 c-10 -9 -9 -41 1 -47 4 -2 14 0 22 6 12 8 11 9 -4 4 -15
-5 -18 -2 -14 19 6 27 5 29 -5 18z"/>
<path d="M620 1781 c0 -6 4 -13 10 -16 6 -3 7 1 4 9 -7 18 -14 21 -14 7z"/>
<path d="M1500 1765 c0 -8 2 -15 4 -15 2 0 6 7 10 15 3 8 1 15 -4 15 -6 0 -10
-7 -10 -15z"/>
<path d="M600 1749 c-13 -9 -13 -10 0 -6 8 2 20 -3 26 -11 9 -13 12 -13 19 -1
5 8 5 11 0 7 -4 -4 -13 -1 -19 7 -8 11 -15 12 -26 4z"/>
<path d="M1470 1750 c-13 -8 -12 -10 3 -10 9 0 17 5 17 10 0 12 -1 12 -20 0z"/>
<path d="M3555 1750 c3 -5 8 -10 11 -10 2 0 4 5 4 10 0 6 -5 10 -11 10 -5 0
-7 -4 -4 -10z"/>
<path d="M3613 1745 c-3 -9 -3 -19 1 -22 3 -4 6 1 6 11 0 10 5 14 12 10 7 -4
8 -3 4 4 -10 16 -15 15 -23 -3z"/>
<path d="M1435 1730 c3 -5 8 -10 11 -10 2 0 4 5 4 10 0 6 -5 10 -11 10 -5 0
-7 -4 -4 -10z"/>
<path d="M1504 1726 c-3 -8 -14 -13 -25 -11 -10 2 -22 -1 -25 -7 -5 -7 -2 -8
6 -3 10 6 12 4 7 -8 -3 -10 -2 -17 3 -17 6 0 10 7 10 16 0 8 4 13 9 9 6 -3 15
4 21 15 6 11 8 20 5 20 -3 0 -8 -6 -11 -14z"/>
<path d="M3581 1728 c-1 -12 -7 -16 -18 -12 -15 5 -16 4 -3 -5 17 -12 35 1 27
21 -4 9 -6 8 -6 -4z"/>
<path d="M655 1721 c-3 -5 0 -13 6 -17 7 -4 9 -3 5 4 -3 5 0 13 6 15 9 4 10 6
1 6 -6 1 -14 -3 -18 -8z"/>
<path d="M621 1705 c0 -5 6 -18 14 -29 13 -18 14 -18 12 2 0 11 -4 19 -8 16
-4 -2 -10 2 -12 8 -3 7 -6 9 -6 3z"/>
<path d="M3610 1701 c0 -7 -4 -9 -10 -6 -6 4 -7 -1 -3 -11 6 -15 7 -15 15 1 6
9 7 19 4 22 -3 4 -6 1 -6 -6z"/>
<path d="M590 1682 c7 -13 14 -21 17 -18 3 3 14 -5 25 -17 l19 -22 -17 28 c-9
15 -19 25 -22 22 -3 -2 -11 3 -19 13 -13 15 -13 14 -3 -6z"/>
<path d="M1511 1684 c0 -11 3 -14 6 -6 3 7 2 16 -1 19 -3 4 -6 -2 -5 -13z"/>
<path d="M3555 1679 c-4 -6 -5 -12 -2 -15 2 -3 7 2 10 11 7 17 1 20 -8 4z"/>
<path d="M1430 1670 c0 -5 5 -10 10 -10 6 0 10 5 10 10 0 6 -4 10 -10 10 -5 0
-10 -4 -10 -10z"/>
<path d="M3577 1673 c-2 -5 -3 -15 -2 -23 0 -8 -6 -21 -15 -28 -13 -11 -11
-11 8 -2 13 6 20 16 16 22 -5 7 -2 9 8 6 8 -4 21 -2 29 3 12 8 12 10 -1 8 -29
-3 -41 1 -35 11 3 6 4 10 1 10 -3 0 -7 -3 -9 -7z"/>
<path d="M660 1649 c0 -5 5 -7 10 -4 6 3 10 8 10 11 0 2 -4 4 -10 4 -5 0 -10
-5 -10 -11z"/>
<path d="M1460 1655 c0 -8 29 -12 39 -5 9 5 4 8 -13 8 -14 0 -26 -2 -26 -3z"/>
<path d="M1430 1630 c0 -5 5 -10 10 -10 6 0 10 5 10 10 0 6 -4 10 -10 10 -5 0
-10 -4 -10 -10z"/>
<path d="M1495 1630 c-3 -6 1 -7 9 -4 18 7 21 14 7 14 -6 0 -13 -4 -16 -10z"/>
<path d="M3615 1630 c-3 -6 1 -7 9 -4 18 7 21 14 7 14 -6 0 -13 -4 -16 -10z"/>
<path d="M621 1625 c0 -5 6 -18 14 -29 13 -18 14 -18 12 2 0 11 -4 19 -8 16
-4 -2 -10 2 -12 8 -3 7 -6 9 -6 3z"/>
<path d="M590 1602 c7 -13 14 -21 17 -18 3 3 14 -5 25 -17 l19 -22 -17 28 c-9
15 -19 25 -22 22 -3 -2 -11 3 -19 13 -13 15 -13 14 -3 -6z"/>
<path d="M3593 1605 c0 -8 4 -15 9 -15 4 0 8 4 8 9 0 6 -4 12 -8 15 -5 3 -9
-1 -9 -9z"/>
<path d="M1435 1599 c-4 -6 -5 -12 -2 -15 2 -3 7 2 10 11 7 17 1 20 -8 4z"/>
<path d="M1495 1600 c6 -10 4 -12 -8 -7 -10 3 -17 2 -17 -3 0 -13 27 -13 35
-1 3 5 0 13 -6 17 -8 5 -9 3 -4 -6z"/>
<path d="M3548 1593 c6 -2 18 -2 25 0 6 3 1 5 -13 5 -14 0 -19 -2 -12 -5z"/>
<path d="M1452 1570 c0 -14 2 -19 5 -12 2 6 2 18 0 25 -3 6 -5 1 -5 -13z"/>
<path d="M660 1569 c0 -5 5 -7 10 -4 6 3 10 8 10 11 0 2 -4 4 -10 4 -5 0 -10
-5 -10 -11z"/>
<path d="M3572 1563 c2 -12 11 -17 27 -15 16 3 21 0 16 -9 -5 -8 -4 -10 4 -5
17 11 1 28 -21 23 -14 -4 -18 -2 -14 9 3 8 1 14 -5 14 -6 0 -9 -8 -7 -17z"/>
<path d="M3610 1576 c0 -2 7 -7 16 -10 8 -3 12 -2 9 4 -6 10 -25 14 -25 6z"/>
<path d="M1430 1554 c0 -13 18 -39 24 -34 2 3 -2 14 -10 24 -8 11 -14 16 -14
10z"/>
<path d="M1470 1551 c0 -6 6 -8 14 -5 11 4 13 0 9 -14 -5 -22 12 -38 23 -21 5
8 3 9 -5 4 -9 -5 -12 0 -9 16 2 16 -3 25 -14 27 -10 2 -18 -1 -18 -7z"/>
<path d="M3554 1547 c5 -15 2 -17 -17 -12 -20 5 -20 5 -4 -6 23 -14 40 0 26
21 -9 12 -10 12 -5 -3z"/>
<path d="M621 1545 c0 -5 6 -18 14 -29 13 -18 14 -18 12 2 0 11 -4 19 -8 16
-4 -2 -10 2 -12 8 -3 7 -6 9 -6 3z"/>
<path d="M590 1522 c7 -13 14 -21 17 -18 3 3 14 -5 25 -17 l19 -22 -17 28 c-9
15 -19 25 -22 22 -3 -2 -11 3 -19 13 -13 15 -13 14 -3 -6z"/>
<path d="M1473 1494 c0 -17 2 -22 7 -13 5 6 6 18 3 26 -8 19 -10 16 -10 -13z"/>
<path d="M3577 1509 c7 -7 15 -10 18 -7 3 3 -2 9 -12 12 -14 6 -15 5 -6 -5z"/>
<path d="M660 1489 c0 -5 5 -7 10 -4 6 3 10 8 10 11 0 2 -4 4 -10 4 -5 0 -10
-5 -10 -11z"/>
<path d="M1438 1493 c7 -3 16 -2 19 1 4 3 -2 6 -13 5 -11 0 -14 -3 -6 -6z"/>
<path d="M3551 1490 c-9 -5 -4 -7 13 -7 29 0 32 2 13 10 -8 3 -20 2 -26 -3z"/>
<path d="M3513 1475 c0 -8 4 -15 9 -15 4 0 8 4 8 9 0 6 -4 12 -8 15 -5 3 -9
-1 -9 -9z"/>
<path d="M3596 1475 c-9 -26 -7 -32 5 -12 6 10 9 21 6 23 -2 3 -7 -2 -11 -11z"/>
<path d="M621 1465 c0 -5 6 -18 14 -29 13 -18 14 -18 12 2 0 11 -4 19 -8 16
-4 -2 -10 2 -12 8 -3 7 -6 9 -6 3z"/>
<path d="M590 1442 c7 -13 14 -21 17 -18 3 3 14 -5 25 -17 l19 -22 -17 28 c-9
15 -19 25 -22 22 -3 -2 -11 3 -19 13 -13 15 -13 14 -3 -6z"/>
<path d="M1439 1443 c-13 -17 -13 -17 6 -3 11 8 22 16 24 17 2 2 0 3 -6 3 -6
0 -17 -8 -24 -17z"/>
<path d="M3548 1453 c6 -2 12 -9 12 -14 0 -6 -4 -8 -9 -4 -6 3 -15 -5 -21 -17
-9 -20 -9 -21 2 -7 7 9 21 15 30 13 10 -1 21 3 25 8 3 6 1 8 -4 5 -6 -4 -13 0
-17 8 -3 8 -11 15 -18 14 -10 0 -10 -2 0 -6z"/>
<path d="M1468 1433 c6 -2 18 -2 25 0 6 3 1 5 -13 5 -14 0 -19 -2 -12 -5z"/>
<path d="M3597 1423 c-4 -3 -7 -11 -7 -17 0 -6 5 -5 12 2 6 6 9 14 7 17 -3 3
-9 2 -12 -2z"/>
<path d="M660 1409 c0 -5 5 -7 10 -4 6 3 10 8 10 11 0 2 -4 4 -10 4 -5 0 -10
-5 -10 -11z"/>
<path d="M1457 1403 c5 -12 3 -14 -7 -8 -9 5 -11 4 -6 -4 4 -6 12 -9 17 -6 12
8 12 35 -1 35 -5 0 -6 -7 -3 -17z"/>
<path d="M1490 1406 c0 -20 17 -29 26 -15 5 8 3 9 -6 4 -10 -6 -12 -4 -7 8 3
10 2 17 -3 17 -6 0 -10 -6 -10 -14z"/>
<path d="M3460 1396 c0 -2 7 -6 15 -10 8 -3 15 -1 15 4 0 6 -7 10 -15 10 -8 0
-15 -2 -15 -4z"/>
<path d="M3550 1390 c0 -5 7 -7 15 -4 8 4 15 8 15 10 0 2 -7 4 -15 4 -8 0 -15
-4 -15 -10z"/>
<path d="M621 1385 c0 -5 6 -18 14 -29 13 -18 14 -18 12 2 0 11 -4 19 -8 16
-4 -2 -10 2 -12 8 -3 7 -6 9 -6 3z"/>
<path d="M3492 1374 c-7 -8 -8 -14 -3 -14 10 0 25 19 20 25 -2 1 -10 -3 -17
-11z"/>
<path d="M3522 1370 c-15 -25 -15 -30 0 -30 6 0 8 3 5 7 -4 3 -2 12 5 20 6 7
9 15 7 18 -3 2 -10 -5 -17 -15z"/>
<path d="M590 1362 c7 -13 14 -21 17 -18 3 3 14 -5 25 -17 l19 -22 -17 28 c-9
15 -19 25 -22 22 -3 -2 -11 3 -19 13 -13 15 -13 14 -3 -6z"/>
<path d="M1460 1360 c-6 -11 -9 -20 -8 -20 2 0 11 9 21 20 9 11 13 20 7 20 -5
0 -14 -9 -20 -20z"/>
<path d="M3565 1369 c-11 -16 -1 -19 13 -3 7 8 8 14 3 14 -5 0 -13 -5 -16 -11z"/>
<path d="M1477 1347 c-3 -8 -2 -20 3 -26 5 -9 8 -4 8 13 0 29 -3 32 -11 13z"/>
<path d="M3446 1348 c3 -5 10 -6 15 -3 13 9 11 12 -6 12 -8 0 -12 -4 -9 -9z"/>
<path d="M660 1329 c0 -5 5 -7 10 -4 6 3 10 8 10 11 0 2 -4 4 -10 4 -5 0 -10
-5 -10 -11z"/>
<path d="M3470 1328 c0 -4 7 -8 15 -8 8 0 15 4 15 8 0 5 -7 9 -15 9 -8 0 -15
-4 -15 -9z"/>
<path d="M3540 1335 c0 -8 29 -12 39 -5 9 5 4 8 -13 8 -14 0 -26 -2 -26 -3z"/>
<path d="M1435 1320 c-3 -5 -1 -10 4 -10 6 0 11 5 11 10 0 6 -2 10 -4 10 -3 0
-8 -4 -11 -10z"/>
<path d="M3515 1319 c-4 -6 -5 -12 -2 -15 2 -3 7 2 10 11 7 17 1 20 -8 4z"/>
<path d="M3537 1313 c-10 -10 -8 -41 2 -48 5 -3 13 0 17 6 5 8 3 9 -6 4 -10
-6 -12 -1 -8 19 6 28 5 30 -5 19z"/>
<path d="M621 1305 c0 -5 6 -18 14 -29 13 -18 14 -18 12 2 0 11 -4 19 -8 16
-4 -2 -10 2 -12 8 -3 7 -6 9 -6 3z"/>
<path d="M590 1282 c7 -13 14 -21 17 -18 3 3 14 -5 25 -17 l19 -22 -17 28 c-9
15 -19 25 -22 22 -3 -2 -11 3 -19 13 -13 15 -13 14 -3 -6z"/>
<path d="M1490 1296 c0 -2 7 -7 16 -10 8 -3 12 -2 9 4 -6 10 -25 14 -25 6z"/>
<path d="M3475 1290 c-3 -6 1 -7 9 -4 18 7 21 14 7 14 -6 0 -13 -4 -16 -10z"/>
<path d="M1468 1273 c6 -2 18 -2 25 0 6 3 1 5 -13 5 -14 0 -19 -2 -12 -5z"/>
<path d="M2270 1276 c0 -2 7 -7 16 -10 8 -3 12 -2 9 4 -6 10 -25 14 -25 6z"/>
<path d="M3414 1268 c-4 -7 -4 -10 1 -6 4 4 14 0 21 -10 7 -9 14 -12 14 -6 0
6 -6 17 -14 23 -11 9 -16 9 -22 -1z"/>
<path d="M3457 1267 c3 -5 14 -7 24 -4 10 3 20 -1 22 -9 3 -9 4 -8 3 2 0 11
-10 18 -28 18 -14 1 -24 -2 -21 -7z"/>
<path d="M3390 1255 c0 -8 4 -15 10 -15 5 0 7 7 4 15 -4 8 -8 15 -10 15 -2 0
-4 -7 -4 -15z"/>
<path d="M660 1249 c0 -5 5 -7 10 -4 6 3 10 8 10 11 0 2 -4 4 -10 4 -5 0 -10
-5 -10 -11z"/>
<path d="M1490 1246 c0 -20 17 -29 26 -15 5 8 3 9 -6 4 -10 -6 -12 -4 -7 8 3
10 2 17 -3 17 -6 0 -10 -6 -10 -14z"/>
<path d="M2278 1243 c7 -3 16 -2 19 1 4 3 -2 6 -13 5 -11 0 -14 -3 -6 -6z"/>
<path d="M2313 1214 c0 -17 2 -22 7 -13 5 6 6 18 3 26 -8 19 -10 16 -10 -13z"/>
<path d="M3377 1220 c3 -11 9 -20 15 -20 5 0 4 9 -2 20 -6 11 -12 20 -14 20
-2 0 -2 -9 1 -20z"/>
<path d="M3415 1229 c-4 -6 -4 -13 -1 -16 3 -4 6 -1 6 6 0 7 5 9 12 5 7 -4 8
-3 4 4 -9 15 -13 15 -21 1z"/>
<path d="M3457 1233 c-8 -8 12 -33 26 -33 6 0 2 7 -9 16 -16 13 -16 15 -1 10
9 -3 17 -1 17 4 0 11 -23 13 -33 3z"/>
<path d="M621 1225 c0 -5 3 -16 8 -23 7 -11 9 -10 14 3 4 9 3 14 -2 10 -5 -3
-12 1 -14 7 -3 7 -6 9 -6 3z"/>
<path d="M1460 1210 c-8 -5 -10 -10 -5 -10 6 0 17 5 25 10 8 5 11 10 5 10 -5
0 -17 -5 -25 -10z"/>
<path d="M2277 1203 c3 -7 6 -13 8 -13 2 0 5 6 8 13 3 8 -1 14 -8 14 -7 0 -11
-6 -8 -14z"/>
<path d="M1500 1201 c0 -7 -5 -9 -12 -5 -7 5 -8 3 -3 -5 5 -9 10 -10 18 -2 6
6 8 14 4 18 -4 3 -7 1 -7 -6z"/>
<path d="M2375 1190 c-3 -5 -1 -10 4 -10 6 0 11 5 11 10 0 6 -2 10 -4 10 -3 0
-8 -4 -11 -10z"/>
<path d="M3350 1190 c0 -5 5 -10 10 -10 6 0 10 5 10 10 0 6 -4 10 -10 10 -5 0
-10 -4 -10 -10z"/>
<path d="M3417 1187 c3 -5 14 -6 25 -4 14 4 18 2 14 -9 -3 -8 -2 -12 3 -9 5 3
12 1 16 -5 3 -5 1 -10 -6 -10 -7 0 -10 -3 -6 -6 3 -3 11 -3 16 1 18 10 -15 48
-43 50 -13 0 -22 -3 -19 -8z"/>
<path d="M3495 1189 c-4 -6 -5 -12 -2 -15 2 -3 7 2 10 11 7 17 1 20 -8 4z"/>
<path d="M610 1168 c0 -6 3 -8 7 -5 3 4 12 2 20 -4 8 -7 13 -8 13 -1 0 5 -7
13 -16 16 -22 8 -24 8 -24 -6z"/>
<path d="M1459 1169 c-12 -8 -12 -10 1 -8 30 3 41 -1 34 -13 -4 -7 -3 -8 4 -4
16 10 15 14 -6 25 -12 6 -23 6 -33 0z"/>
<path d="M2290 1170 c0 -5 5 -10 10 -10 6 0 10 5 10 10 0 6 -4 10 -10 10 -5 0
-10 -4 -10 -10z"/>
<path d="M3310 1168 c0 -4 7 -8 15 -8 8 0 15 4 15 8 0 5 -7 9 -15 9 -8 0 -15
-4 -15 -9z"/>
<path d="M3391 1170 c-9 -5 -4 -7 13 -7 29 0 32 2 13 10 -8 3 -20 2 -26 -3z"/>
<path d="M2337 1149 c7 -7 15 -10 18 -7 3 3 -2 9 -12 12 -14 6 -15 5 -6 -5z"/>
<path d="M3350 1150 c0 -5 5 -10 10 -10 6 0 10 5 10 10 0 6 -4 10 -10 10 -5 0
-10 -4 -10 -10z"/>
<path d="M2282 1130 c0 -14 2 -19 5 -12 2 6 2 18 0 25 -3 6 -5 1 -5 -13z"/>
<path d="M2426 1133 c-6 -14 -5 -15 5 -6 7 7 10 15 7 18 -3 3 -9 -2 -12 -12z"/>
<path d="M3270 1135 c-11 -13 -10 -14 4 -9 9 3 16 10 16 15 0 13 -6 11 -20 -6z"/>
<path d="M3430 1141 c0 -6 4 -12 8 -15 5 -3 9 1 9 9 0 8 -4 15 -9 15 -4 0 -8
-4 -8 -9z"/>
<path d="M650 1130 c0 -5 5 -10 10 -10 6 0 10 5 10 10 0 6 -4 10 -10 10 -5 0
-10 -4 -10 -10z"/>
<path d="M2317 1133 c-13 -12 -7 -23 11 -22 10 0 12 3 4 6 -6 2 -10 9 -6 14 6
10 0 12 -9 2z"/>
<path d="M2465 1130 c-3 -5 -1 -10 4 -10 6 0 11 5 11 10 0 6 -2 10 -4 10 -3 0
-8 -4 -11 -10z"/>
<path d="M3207 1129 c7 -7 15 -10 18 -7 3 3 -2 9 -12 12 -14 6 -15 5 -6 -5z"/>
<path d="M3392 1126 c7 -8 15 -12 17 -11 5 6 -10 25 -20 25 -5 0 -4 -6 3 -14z"/>
<path d="M1491 1123 c-1 -17 16 -25 25 -12 4 7 3 9 -4 5 -5 -3 -13 0 -15 6 -4
9 -6 10 -6 1z"/>
<path d="M3295 1120 c-7 -12 20 -24 34 -16 5 4 12 -1 14 -9 4 -11 4 -10 3 2
-1 13 -8 17 -25 15 -15 -2 -21 0 -17 7 4 6 5 11 2 11 -3 0 -8 -5 -11 -10z"/>
<path d="M3356 1117 c3 -10 9 -15 12 -12 3 3 0 11 -7 18 -10 9 -11 8 -5 -6z"/>
<path d="M597 1107 c-3 -8 -2 -20 3 -26 5 -9 8 -4 8 13 0 29 -3 32 -11 13z"/>
<path d="M1473 1094 c0 -17 2 -22 7 -13 5 6 6 18 3 26 -8 19 -10 16 -10 -13z"/>
<path d="M2484 1109 c-4 -7 -3 -9 4 -5 5 3 13 0 15 -6 4 -9 6 -10 6 -1 1 17
-16 25 -25 12z"/>
<path d="M3176 1113 c-10 -10 -7 -33 4 -33 5 0 7 8 3 18 -6 15 -4 15 16 -2 17
-16 21 -17 16 -4 -7 18 -30 30 -39 21z"/>
<path d="M632 1101 c-11 -6 -9 -9 6 -13 15 -4 19 -2 15 8 -6 16 -4 16 -21 5z"/>
<path d="M3233 1084 c0 -17 2 -22 7 -13 5 6 6 18 3 26 -8 19 -10 16 -10 -13z"/>
<path d="M3270 1101 c0 -5 5 -13 10 -16 6 -3 10 -2 10 4 0 5 -4 13 -10 16 -5
3 -10 2 -10 -4z"/>
<path d="M2336 1086 c4 -11 0 -13 -14 -9 -22 5 -38 -12 -21 -23 8 -5 9 -3 4 5
-5 9 0 12 16 9 16 -2 25 3 27 15 2 9 -1 17 -7 17 -6 0 -8 -6 -5 -14z"/>
<path d="M2546 1085 c7 -18 32 -27 40 -13 4 7 3 8 -4 4 -7 -4 -12 -3 -12 2 0
6 -7 12 -14 15 -10 4 -13 1 -10 -8z"/>
<path d="M3115 1089 c-4 -6 -5 -12 -2 -15 2 -3 7 2 10 11 7 17 1 20 -8 4z"/>
<path d="M260 1076 c0 -2 7 -6 15 -10 8 -3 15 -1 15 4 0 6 -7 10 -15 10 -8 0
-15 -2 -15 -4z"/>
<path d="M1179 1078 c0 -2 -2 -13 -5 -26 -3 -19 -2 -21 10 -10 8 7 10 15 5 16
-5 2 -7 8 -3 13 3 5 3 9 0 9 -3 0 -6 -1 -7 -2z"/>
<path d="M1217 1073 c-2 -5 -3 -16 -1 -26 2 -13 -2 -17 -12 -13 -8 3 -14 1
-14 -5 0 -6 8 -9 18 -7 11 2 17 12 16 26 -1 16 3 21 12 18 8 -3 14 -1 14 4 0
12 -27 13 -33 3z"/>
<path d="M1497 1069 c7 -7 15 -10 18 -7 3 3 -2 9 -12 12 -14 6 -15 5 -6 -5z"/>
<path d="M2139 1078 c0 -2 -2 -13 -5 -26 -3 -19 -2 -21 10 -10 8 7 10 15 5 16
-5 2 -7 8 -3 13 3 5 3 9 0 9 -3 0 -6 -1 -7 -2z"/>
<path d="M2177 1073 c-2 -5 -3 -16 -1 -26 2 -13 -2 -17 -12 -13 -8 3 -14 1
-14 -5 0 -6 8 -9 18 -7 11 2 17 12 16 26 -1 16 3 21 12 18 8 -3 14 -1 14 4 0
12 -27 13 -33 3z"/>
<path d="M2490 1071 c0 -6 4 -12 8 -15 5 -3 9 1 9 9 0 8 -4 15 -9 15 -4 0 -8
-4 -8 -9z"/>
<path d="M3255 1069 c-4 -6 -4 -13 -1 -16 3 -4 6 -1 6 6 0 7 5 9 12 5 7 -4 8
-3 4 4 -9 15 -13 15 -21 1z"/>
<path d="M3297 1073 c-9 -19 0 -46 16 -49 9 -1 15 2 11 7 -3 5 -9 7 -14 4 -5
-3 -8 4 -7 15 1 12 6 19 14 16 7 -3 13 -1 13 4 0 12 -27 13 -33 3z"/>
<path d="M3375 1069 c-4 -6 -5 -12 -2 -15 2 -3 7 2 10 11 7 17 1 20 -8 4z"/>
<path d="M362 1050 c0 -14 2 -19 5 -12 2 6 2 18 0 25 -3 6 -5 1 -5 -13z"/>
<path d="M454 1045 c1 -15 7 -19 25 -17 16 3 21 0 16 -9 -5 -8 -4 -10 4 -5 17
11 2 29 -20 23 -11 -3 -19 1 -22 12 -3 10 -4 9 -3 -4z"/>
<path d="M1095 1059 c-4 -6 -4 -13 -1 -16 3 -4 6 -1 6 5 0 7 5 12 11 12 5 0 7
-4 4 -10 -3 -6 1 -7 10 -3 13 5 14 7 3 14 -18 12 -26 11 -33 -2z"/>
<path d="M1322 1050 c0 -14 2 -19 5 -12 2 6 2 18 0 25 -3 6 -5 1 -5 -13z"/>
<path d="M1411 1053 c-1 -31 10 -34 38 -12 13 10 19 19 13 19 -5 0 -16 -7 -23
-16 -12 -15 -14 -14 -20 7 -7 23 -7 23 -8 2z"/>
<path d="M2227 1050 c-8 -11 -17 -17 -22 -12 -5 4 -5 1 0 -7 7 -12 10 -11 20
2 7 9 14 15 17 12 2 -3 5 2 5 10 0 20 -3 19 -20 -5z"/>
<path d="M3188 1063 c6 -2 10 -9 7 -14 -4 -5 1 -6 10 -2 13 5 14 7 3 14 -7 5
-17 8 -23 8 -5 0 -4 -3 3 -6z"/>
<path d="M3337 1055 c-4 -8 -3 -16 1 -19 4 -3 9 4 9 15 2 23 -3 25 -10 4z"/>
<path d="M297 1041 c-4 -17 -3 -21 5 -13 5 5 8 16 6 23 -3 8 -7 3 -11 -10z"/>
<path d="M397 1046 c-4 -10 -1 -13 9 -9 15 6 19 23 5 23 -5 0 -11 -7 -14 -14z"/>
<path d="M550 1050 c0 -5 5 -10 11 -10 5 0 7 5 4 10 -3 6 -8 10 -11 10 -2 0
-4 -4 -4 -10z"/>
<path d="M584 1048 c-3 -4 5 -5 17 -3 30 6 36 14 9 12 -12 -1 -24 -5 -26 -9z"/>
<path d="M1264 1045 c-4 -8 -11 -12 -17 -8 -6 4 -7 1 -2 -7 6 -10 11 -10 20 3
7 9 15 14 18 10 4 -3 7 -1 7 5 0 17 -20 15 -26 -3z"/>
<path d="M1357 1046 c-4 -10 -1 -13 9 -9 15 6 19 23 5 23 -5 0 -11 -7 -14 -14z"/>
<path d="M1930 1056 c0 -2 7 -7 16 -10 8 -3 12 -2 9 4 -6 10 -25 14 -25 6z"/>
<path d="M1970 1052 c0 -4 10 -9 22 -9 18 -2 20 0 8 7 -18 12 -30 13 -30 2z"/>
<path d="M2026 1052 c-3 -5 1 -9 9 -9 8 0 12 4 9 9 -3 4 -7 8 -9 8 -2 0 -6 -4
-9 -8z"/>
<path d="M2078 1053 c7 -3 16 -2 19 1 4 3 -2 6 -13 5 -11 0 -14 -3 -6 -6z"/>
<path d="M2272 1046 c7 -8 15 -12 17 -11 5 6 -10 25 -20 25 -5 0 -4 -6 3 -14z"/>
<path d="M2530 1050 c0 -5 5 -10 10 -10 6 0 10 5 10 10 0 6 -4 10 -10 10 -5 0
-10 -4 -10 -10z"/>
<path d="M2590 1050 c0 -5 9 -14 20 -20 11 -6 20 -9 20 -8 0 2 -9 11 -20 21
-11 9 -20 13 -20 7z"/>
<path d="M2633 1041 c16 -10 28 -21 27 -25 -1 -4 1 -12 4 -19 2 -6 4 -2 2 11
-2 22 -31 51 -51 52 -5 0 3 -9 18 -19z"/>
<path d="M2670 1050 c0 -6 6 -13 14 -16 8 -3 13 -14 11 -25 -2 -10 2 -22 8
-25 7 -4 9 -4 5 1 -4 4 0 14 10 22 16 12 16 13 -2 6 -13 -4 -17 -3 -12 5 4 7
1 15 -8 18 -9 3 -13 10 -10 15 3 5 0 9 -5 9 -6 0 -11 -5 -11 -10z"/>
<path d="M2706 1048 c3 -4 11 -5 19 -1 21 7 19 12 -4 10 -11 0 -18 -5 -15 -9z"/>
<path d="M2819 1053 c-1 -5 -1 -12 0 -17 1 -5 -5 -6 -14 -3 -8 4 -15 2 -15 -4
0 -18 33 -5 36 14 1 9 0 17 -2 17 -2 0 -5 -3 -5 -7z"/>
<path d="M2845 1050 c-3 -5 -1 -10 5 -10 6 0 8 -5 4 -12 -4 -7 -3 -8 4 -4 6 4
9 13 5 21 -6 18 -10 19 -18 5z"/>
<path d="M2937 1046 c-3 -8 -3 -17 0 -20 10 -10 33 -7 33 4 0 5 -7 7 -15 4
-11 -5 -13 -2 -9 10 3 9 4 16 1 16 -3 0 -7 -6 -10 -14z"/>
<path d="M3050 1050 c0 -5 5 -10 10 -10 6 0 10 5 10 10 0 6 -4 10 -10 10 -5 0
-10 -4 -10 -10z"/>
<path d="M3090 1050 c0 -5 5 -10 10 -10 6 0 10 5 10 10 0 6 -4 10 -10 10 -5 0
-10 -4 -10 -10z"/>
<path d="M625 1037 c-14 -11 -15 -16 -5 -22 9 -5 11 -4 6 3 -4 7 -1 12 8 12 9
0 16 5 16 10 0 13 -3 13 -25 -3z"/>
<path d="M2315 1040 c-3 -6 1 -7 9 -4 18 7 21 14 7 14 -6 0 -13 -4 -16 -10z"/>
<path d="M3234 1040 c1 -7 5 -11 10 -10 5 1 12 -4 17 -11 4 -7 15 -14 23 -15
9 -1 14 2 10 7 -3 5 -9 7 -14 4 -4 -3 -11 2 -14 11 -3 8 -10 13 -15 10 -5 -4
-12 -1 -14 4 -4 7 -5 6 -3 0z"/>
<path d="M250 1029 c0 -5 5 -7 10 -4 6 3 10 8 10 11 0 2 -4 4 -10 4 -5 0 -10
-5 -10 -11z"/>
<path d="M433 1014 c0 -17 2 -22 7 -13 5 6 6 18 3 26 -8 19 -10 16 -10 -13z"/>
<path d="M1393 1014 c0 -17 2 -22 7 -13 5 6 6 18 3 26 -8 19 -10 16 -10 -13z"/>
<path d="M1468 1033 c6 -2 18 -2 25 0 6 3 1 5 -13 5 -14 0 -19 -2 -12 -5z"/>
<path d="M1935 1011 c0 -16 3 -27 7 -25 4 3 6 14 5 24 -5 31 -13 32 -12 1z"/>
<path d="M2055 1031 c-3 -5 0 -13 6 -17 7 -4 9 -3 5 4 -3 5 0 13 6 15 9 4 10
6 1 6 -6 1 -14 -3 -18 -8z"/>
<path d="M2555 1030 c-4 -6 1 -7 11 -3 13 5 15 3 9 -7 -5 -9 -4 -11 4 -6 6 4
9 12 6 17 -8 12 -22 12 -30 -1z"/>
<path d="M2736 1012 c0 -18 7 -28 18 -28 10 -1 11 0 2 3 -8 2 -12 12 -9 22 3
10 1 21 -4 24 -5 3 -8 -7 -7 -21z"/>
<path d="M3017 1033 c-2 -5 -3 -15 -2 -23 0 -8 -6 -21 -15 -28 -13 -11 -11
-11 8 -2 13 6 20 16 16 22 -5 7 0 9 14 6 14 -4 19 -2 15 8 -2 7 -12 10 -20 7
-11 -4 -14 -2 -9 5 4 7 5 12 2 12 -3 0 -7 -3 -9 -7z"/>
<path d="M3115 1029 c-4 -6 -5 -12 -2 -15 2 -3 7 2 10 11 7 17 1 20 -8 4z"/>
<path d="M3148 1033 c6 -2 18 -2 25 0 6 3 1 5 -13 5 -14 0 -19 -2 -12 -5z"/>
<path d="M319 1028 c-5 -18 -6 -38 -1 -34 7 8 12 36 6 36 -2 0 -4 -1 -5 -2z"/>
<path d="M517 1017 c-3 -8 -2 -20 3 -26 5 -9 8 -4 8 13 0 29 -3 32 -11 13z"/>
<path d="M593 1004 c0 -17 2 -22 7 -13 5 6 6 18 3 26 -8 19 -10 16 -10 -13z"/>
<path d="M1095 1021 c-9 -15 13 -23 32 -11 15 9 14 10 -6 4 -16 -4 -21 -3 -17
5 4 6 5 11 2 11 -3 0 -7 -4 -11 -9z"/>
<path d="M1279 1028 c-5 -18 -6 -38 -1 -34 7 8 12 36 6 36 -2 0 -4 -1 -5 -2z"/>
<path d="M2033 1004 c0 -17 2 -22 7 -13 5 6 6 18 3 26 -8 19 -10 16 -10 -13z"/>
<path d="M2239 1028 c-5 -18 -6 -38 -1 -34 7 8 12 36 6 36 -2 0 -4 -1 -5 -2z"/>
<path d="M2770 1015 c0 -8 4 -15 10 -15 5 0 7 7 4 15 -4 8 -8 15 -10 15 -2 0
-4 -7 -4 -15z"/>
<path d="M2979 1018 c-1 -7 -1 -16 0 -20 0 -5 -5 -8 -13 -8 -8 0 -14 -9 -13
-19 0 -11 5 -17 9 -15 5 3 6 9 3 14 -3 4 0 10 7 12 11 4 23 48 13 48 -3 0 -6
-6 -6 -12z"/>
<path d="M3073 1004 c0 -17 2 -22 7 -13 5 6 6 18 3 26 -8 19 -10 16 -10 -13z"/>
<path d="M261 1010 c-9 -5 -4 -7 13 -7 29 0 32 2 13 10 -8 3 -20 2 -26 -3z"/>
<path d="M340 1015 c0 -8 29 -12 39 -5 9 5 4 8 -13 8 -14 0 -26 -2 -26 -3z"/>
<path d="M650 1010 c0 -5 5 -10 10 -10 6 0 10 5 10 10 0 6 -4 10 -10 10 -5 0
-10 -4 -10 -10z"/>
<path d="M1174 1003 c2 -10 11 -19 22 -20 16 -2 16 -1 1 3 -9 3 -15 9 -12 14
3 5 1 11 -4 14 -5 4 -8 -2 -7 -11z"/>
<path d="M1221 1010 c-9 -5 -4 -7 13 -7 29 0 32 2 13 10 -8 3 -20 2 -26 -3z"/>
<path d="M1300 1015 c0 -8 29 -12 39 -5 9 5 4 8 -13 8 -14 0 -26 -2 -26 -3z"/>
<path d="M1456 1007 c3 -8 -4 -13 -16 -14 -12 -1 -18 2 -14 9 4 7 2 8 -5 4
-17 -11 -3 -26 22 -22 22 3 38 36 18 36 -6 0 -8 -6 -5 -13z"/>
<path d="M1490 1006 c0 -20 17 -29 26 -15 5 8 3 9 -6 4 -10 -6 -12 -4 -7 8 3
10 2 17 -3 17 -6 0 -10 -6 -10 -14z"/>
<path d="M2134 1003 c2 -10 11 -19 22 -20 16 -2 16 -1 1 3 -9 3 -15 9 -12 14
3 5 1 11 -4 14 -5 4 -8 -2 -7 -11z"/>
<path d="M2181 1010 c-9 -5 -4 -7 13 -7 29 0 32 2 13 10 -8 3 -20 2 -26 -3z"/>
<path d="M2260 1015 c0 -8 29 -12 39 -5 9 5 4 8 -13 8 -14 0 -26 -2 -26 -3z"/>
<path d="M2595 1011 c-3 -5 -2 -12 3 -15 5 -3 9 1 9 9 0 17 -3 19 -12 6z"/>
<path d="M2821 1010 c-9 -5 -4 -7 13 -7 29 0 32 2 13 10 -8 3 -20 2 -26 -3z"/>
<path d="M2911 1010 c-9 -5 -4 -7 13 -7 29 0 32 2 13 10 -8 3 -20 2 -26 -3z"/>
<path d="M3137 1003 c5 -12 3 -14 -7 -8 -9 5 -11 4 -6 -4 4 -6 12 -9 17 -6 12
8 12 35 -1 35 -5 0 -6 -7 -3 -17z"/>
<path d="M3172 1003 c2 -10 10 -17 17 -15 9 2 11 -3 7 -15 -6 -14 -4 -15 5 -6
13 13 2 36 -13 27 -7 -5 -9 -1 -5 9 3 10 2 17 -4 17 -6 0 -9 -8 -7 -17z"/>
<path d="M3206 1008 c3 -4 9 -8 15 -8 5 0 9 4 9 8 0 5 -7 9 -15 9 -8 0 -12 -4
-9 -9z"/>
<path d="M455 1000 c-8 -13 20 -24 36 -14 9 5 10 2 6 -9 -3 -9 -2 -19 2 -21 5
-3 8 5 7 17 -1 17 -6 21 -25 19 -15 -2 -21 0 -17 7 4 6 5 11 2 11 -3 0 -8 -5
-11 -10z"/>
<path d="M548 1003 c6 -2 18 -2 25 0 6 3 1 5 -13 5 -14 0 -19 -2 -12 -5z"/>
<path d="M1988 1003 c6 -2 18 -2 25 0 6 3 1 5 -13 5 -14 0 -19 -2 -12 -5z"/>
<path d="M2630 1003 c5 -2 8 -9 4 -14 -3 -5 0 -9 6 -9 15 0 7 23 -8 26 -7 1
-8 0 -2 -3z"/>
<path d="M331 983 c-5 -10 -13 -17 -18 -15 -4 2 -8 -1 -9 -7 -2 -7 -1 -8 3 -1
2 5 9 8 14 4 5 -3 12 2 15 10 3 9 11 13 17 9 6 -3 7 -1 3 5 -10 16 -13 15 -25
-5z"/>
<path d="M376 992 c-2 -4 0 -14 6 -22 8 -12 9 -12 5 2 -3 9 -1 19 6 22 9 3 9
5 0 5 -6 1 -14 -3 -17 -7z"/>
<path d="M609 979 c-6 -11 -8 -23 -5 -27 3 -3 6 0 6 7 0 7 4 9 10 6 6 -4 7 1
3 12 -6 16 -5 16 16 -1 17 -16 21 -17 16 -4 -10 26 -34 29 -46 7z"/>
<path d="M1142 987 c10 -8 16 -16 13 -18 -2 -3 6 -6 18 -6 23 -2 15 6 -28 28
-18 9 -19 9 -3 -4z"/>
<path d="M1291 983 c-5 -10 -13 -17 -18 -15 -4 2 -8 -1 -9 -7 -2 -7 -1 -8 3
-1 2 5 9 8 14 4 5 -3 12 2 15 10 3 9 11 13 17 9 6 -3 7 -1 3 5 -10 16 -13 15
-25 -5z"/>
<path d="M1336 992 c-2 -4 0 -14 6 -22 8 -12 9 -12 5 2 -3 9 -1 19 6 22 9 3 9
5 0 5 -6 1 -14 -3 -17 -7z"/>
<path d="M1957 985 c-8 -18 6 -27 29 -18 13 5 15 3 9 -8 -8 -12 -6 -12 8 0 23
18 22 20 -12 16 -23 -3 -29 0 -24 11 3 7 3 14 0 14 -3 0 -7 -7 -10 -15z"/>
<path d="M2050 979 c-7 -11 -9 -23 -6 -27 3 -3 6 0 6 7 0 7 4 9 10 6 6 -4 7 1
3 12 -6 16 -5 17 13 3 18 -14 18 -14 5 3 -17 22 -18 21 -31 -4z"/>
<path d="M2102 987 c10 -8 16 -16 13 -18 -2 -3 6 -6 18 -6 23 -2 15 6 -28 28
-18 9 -19 9 -3 -4z"/>
<path d="M2251 983 c-5 -10 -13 -17 -18 -15 -4 2 -8 -1 -9 -7 -2 -7 -1 -8 3
-1 2 5 9 8 14 4 5 -3 12 2 15 10 3 9 11 13 17 9 6 -3 7 -1 3 5 -10 16 -13 15
-25 -5z"/>
<path d="M2296 992 c-2 -4 0 -14 6 -22 8 -12 9 -12 5 2 -3 9 -1 19 6 22 9 3 9
5 0 5 -6 1 -14 -3 -17 -7z"/>
<path d="M2873 980 c1 -11 5 -20 9 -20 3 0 6 9 5 20 -1 11 -5 20 -9 20 -3 0
-6 -9 -5 -20z"/>
<path d="M3095 989 c-4 -6 -5 -12 -2 -15 2 -3 7 2 10 11 7 17 1 20 -8 4z"/>
<path d="M270 981 c0 -7 -4 -10 -8 -7 -5 3 -9 -2 -9 -10 0 -13 2 -13 16 0 8 9
12 19 8 22 -4 4 -7 2 -7 -5z"/>
<path d="M1226 973 c-6 -14 -5 -15 5 -6 7 7 10 15 7 18 -3 3 -9 -2 -12 -12z"/>
<path d="M2186 973 c-6 -14 -5 -15 5 -6 7 7 10 15 7 18 -3 3 -9 -2 -12 -12z"/>
<path d="M2788 983 c6 -2 9 -10 6 -15 -4 -7 -2 -8 4 -4 18 11 14 26 -5 25 -11
0 -13 -3 -5 -6z"/>
<path d="M2832 970 c0 -14 2 -19 5 -12 2 6 2 18 0 25 -3 6 -5 1 -5 -13z"/>
<path d="M2922 970 c0 -14 2 -19 5 -12 2 6 2 18 0 25 -3 6 -5 1 -5 -13z"/>
<path d="M424 973 c4 -4 16 -8 28 -10 28 -4 18 6 -12 12 -12 2 -20 1 -16 -2z"/>
<path d="M531 971 c-10 -6 -9 -10 4 -14 11 -5 14 -3 9 5 -5 8 -2 9 9 5 9 -3
18 -3 21 1 6 11 -27 12 -43 3z"/>
<path d="M1117 973 c-13 -12 -7 -23 11 -22 10 0 12 3 4 6 -6 2 -10 9 -6 14 6
10 0 12 -9 2z"/>
<path d="M1384 973 c4 -4 16 -8 28 -10 28 -4 18 6 -12 12 -12 2 -20 1 -16 -2z"/>
<path d="M1471 963 c0 -11 3 -13 6 -5 2 6 10 9 15 6 7 -4 8 -2 4 4 -11 18 -26
14 -25 -5z"/>
<path d="M2326 968 c3 -4 9 -8 15 -8 5 0 9 4 9 8 0 5 -7 9 -15 9 -8 0 -12 -4
-9 -9z"/>
<path d="M2717 973 c-4 -3 -7 -11 -7 -17 0 -6 5 -5 12 2 6 6 9 14 7 17 -3 3
-9 2 -12 -2z"/>
<path d="M3038 973 c7 -3 16 -2 19 1 4 3 -2 6 -13 5 -11 0 -14 -3 -6 -6z"/>
<path d="M3110 975 c0 -5 5 -17 10 -25 5 -8 10 -10 10 -5 0 6 -5 17 -10 25 -5
8 -10 11 -10 5z"/>
<path d="M3156 965 c4 -8 8 -15 10 -15 2 0 4 7 4 15 0 8 -4 15 -10 15 -5 0 -7
-7 -4 -15z"/>
<path d="M3070 961 c0 -7 -5 -9 -12 -5 -7 5 -8 3 -3 -5 5 -9 10 -10 18 -2 6 6
8 14 4 18 -4 3 -7 1 -7 -6z"/>
<path d="M2740 956 c0 -2 11 -6 25 -8 13 -3 22 -1 19 3 -5 9 -44 13 -44 5z"/>
<path d="M2857 939 c4 -13 8 -18 11 -10 2 7 -1 18 -6 23 -8 8 -9 4 -5 -13z"/>
<path d="M2899 958 c-8 -27 -5 -36 9 -30 10 4 12 7 4 10 -7 2 -10 8 -6 13 3 5
3 9 0 9 -3 0 -6 -1 -7 -2z"/>
<path d="M2976 951 c-3 -5 2 -15 12 -22 15 -13 16 -12 4 3 -11 14 -10 17 5 21
16 4 16 5 1 6 -9 0 -19 -3 -22 -8z"/>
<path d="M3094 952 c3 -5 0 -13 -6 -15 -9 -4 -10 -6 -1 -6 17 -1 25 16 12 25
-7 4 -9 3 -5 -4z"/>
<path d="M2930 929 c0 -5 5 -7 10 -4 6 3 10 8 10 11 0 2 -4 4 -10 4 -5 0 -10
-5 -10 -11z"/>
<path d="M3015 930 c3 -5 8 -10 11 -10 2 0 4 5 4 10 0 6 -5 10 -11 10 -5 0 -7
-4 -4 -10z"/>
</g>
</svg>
